<?xml version="1.0" encoding="UTF-8" standalone="no"?>
<svg
   width="194.30177"
   height="194.30177"
   version="1.1"
   id="svg30"
   sodipodi:docname="icon_trans.svg"
   inkscape:version="1.2.1 (9c6d41e410, 2022-07-14)"
   xml:space="preserve"
   inkscape:export-filename="icon_trans.pdf"
   inkscape:export-xdpi="533.60297"
   inkscape:export-ydpi="533.60297"
   xmlns:inkscape="http://www.inkscape.org/namespaces/inkscape"
   xmlns:sodipodi="http://sodipodi.sourceforge.net/DTD/sodipodi-0.dtd"
   xmlns="http://www.w3.org/2000/svg"
   xmlns:svg="http://www.w3.org/2000/svg"
   xmlns:rdf="http://www.w3.org/1999/02/22-rdf-syntax-ns#"
   xmlns:cc="http://creativecommons.org/ns#"
   xmlns:dc="http://purl.org/dc/elements/1.1/"><metadata
     id="metadata36"><rdf:RDF><cc:Work
         rdf:about=""><dc:format>image/svg+xml</dc:format><dc:type
           rdf:resource="http://purl.org/dc/dcmitype/StillImage" /><dc:title>Flag of the Marshall Islands</dc:title></cc:Work></rdf:RDF></metadata><defs
     id="defs34"><mask
       maskUnits="userSpaceOnUse"
       id="mask12539"><path
         style="fill:#ffffff;fill-opacity:1;stroke:none;stroke-width:0.0672533;stroke-opacity:1"
         d="M 61.472032,106.18291 C 53.58256,102.90807 47.3902,97.004959 43.823805,89.359025 41.133943,83.592288 40.145108,77.229746 40.956672,70.910888 c 0.84886,-6.609211 3.66517,-12.826596 8.103401,-17.889354 0.829397,-0.946109 2.562065,-2.630138 3.59105,-3.490238 5.392221,-4.50725 11.970978,-7.181399 19.054719,-7.745428 1.308973,-0.104219 4.878235,-0.04646 6.101733,0.0987 6.702446,0.795368 12.816083,3.404383 17.888959,7.634147 0.963524,0.803384 2.775424,2.568269 3.596128,3.502807 6.916238,7.875564 9.777468,18.500601 7.733288,28.717122 -1.29292,6.461807 -4.48746,12.450654 -9.103746,17.06695 -2.137371,2.137386 -4.483685,3.944616 -7.001115,5.392586 -1.846911,1.06231 -4.869297,2.42543 -5.372264,2.42295 l -0.242518,-10e-4 -4.001565,-10.430157 c -2.200861,-5.736584 -4.009011,-10.449651 -4.018113,-10.47348 -0.0091,-0.0238 0.248144,-0.146198 0.571653,-0.271912 1.977541,-0.768479 3.437264,-1.797009 4.686575,-3.302221 1.236694,-1.490016 1.971575,-3.066061 2.3676,-5.077626 0.163367,-0.82979 0.164376,-2.838903 0.0018,-3.711449 -0.566946,-3.044052 -2.262816,-5.60616 -4.819603,-7.281409 -1.145062,-0.750263 -2.623297,-1.343891 -3.968471,-1.593662 -0.892935,-0.165793 -3.007755,-0.165793 -3.900691,0 -3.880776,0.720569 -7.138169,3.546428 -8.372531,7.263348 -1.47384,4.438015 0.01732,9.280324 3.730458,12.114622 0.877451,0.669755 2.056043,1.294147 3.247555,1.720479 0.139252,0.04987 0.245175,0.111427 0.235389,0.136883 -0.01026,0.02545 -1.818501,4.739843 -4.01936,10.476427 l -4.001567,10.430157 -0.269018,-0.004 c -0.171325,-0.002 -0.645018,-0.15969 -1.30445,-0.43341 z"
         id="path12541" /></mask><mask
       maskUnits="userSpaceOnUse"
       id="mask12543"><path
         style="fill:#ffffff;fill-opacity:1;stroke:none;stroke-width:0.0672533;stroke-opacity:1"
         d="M 61.472032,106.18291 C 53.58256,102.90807 47.3902,97.004959 43.823805,89.359025 41.133943,83.592288 40.145108,77.229746 40.956672,70.910888 c 0.84886,-6.609211 3.66517,-12.826596 8.103401,-17.889354 0.829397,-0.946109 2.562065,-2.630138 3.59105,-3.490238 5.392221,-4.50725 11.970978,-7.181399 19.054719,-7.745428 1.308973,-0.104219 4.878235,-0.04646 6.101733,0.0987 6.702446,0.795368 12.816083,3.404383 17.888959,7.634147 0.963524,0.803384 2.775424,2.568269 3.596128,3.502807 6.916238,7.875564 9.777468,18.500601 7.733288,28.717122 -1.29292,6.461807 -4.48746,12.450654 -9.103746,17.06695 -2.137371,2.137386 -4.483685,3.944616 -7.001115,5.392586 -1.846911,1.06231 -4.869297,2.42543 -5.372264,2.42295 l -0.242518,-10e-4 -4.001565,-10.430157 c -2.200861,-5.736584 -4.009011,-10.449651 -4.018113,-10.47348 -0.0091,-0.0238 0.248144,-0.146198 0.571653,-0.271912 1.977541,-0.768479 3.437264,-1.797009 4.686575,-3.302221 1.236694,-1.490016 1.971575,-3.066061 2.3676,-5.077626 0.163367,-0.82979 0.164376,-2.838903 0.0018,-3.711449 -0.566946,-3.044052 -2.262816,-5.60616 -4.819603,-7.281409 -1.145062,-0.750263 -2.623297,-1.343891 -3.968471,-1.593662 -0.892935,-0.165793 -3.007755,-0.165793 -3.900691,0 -3.880776,0.720569 -7.138169,3.546428 -8.372531,7.263348 -1.47384,4.438015 0.01732,9.280324 3.730458,12.114622 0.877451,0.669755 2.056043,1.294147 3.247555,1.720479 0.139252,0.04987 0.245175,0.111427 0.235389,0.136883 -0.01026,0.02545 -1.818501,4.739843 -4.01936,10.476427 l -4.001567,10.430157 -0.269018,-0.004 c -0.171325,-0.002 -0.645018,-0.15969 -1.30445,-0.43341 z"
         id="path12545" /></mask><mask
       maskUnits="userSpaceOnUse"
       id="mask12547"><path
         style="fill:#ffffff;fill-opacity:1;stroke:none;stroke-width:0.0672533;stroke-opacity:1"
         d="M 61.472032,106.18291 C 53.58256,102.90807 47.3902,97.004959 43.823805,89.359025 41.133943,83.592288 40.145108,77.229746 40.956672,70.910888 c 0.84886,-6.609211 3.66517,-12.826596 8.103401,-17.889354 0.829397,-0.946109 2.562065,-2.630138 3.59105,-3.490238 5.392221,-4.50725 11.970978,-7.181399 19.054719,-7.745428 1.308973,-0.104219 4.878235,-0.04646 6.101733,0.0987 6.702446,0.795368 12.816083,3.404383 17.888959,7.634147 0.963524,0.803384 2.775424,2.568269 3.596128,3.502807 6.916238,7.875564 9.777468,18.500601 7.733288,28.717122 -1.29292,6.461807 -4.48746,12.450654 -9.103746,17.06695 -2.137371,2.137386 -4.483685,3.944616 -7.001115,5.392586 -1.846911,1.06231 -4.869297,2.42543 -5.372264,2.42295 l -0.242518,-10e-4 -4.001565,-10.430157 c -2.200861,-5.736584 -4.009011,-10.449651 -4.018113,-10.47348 -0.0091,-0.0238 0.248144,-0.146198 0.571653,-0.271912 1.977541,-0.768479 3.437264,-1.797009 4.686575,-3.302221 1.236694,-1.490016 1.971575,-3.066061 2.3676,-5.077626 0.163367,-0.82979 0.164376,-2.838903 0.0018,-3.711449 -0.566946,-3.044052 -2.262816,-5.60616 -4.819603,-7.281409 -1.145062,-0.750263 -2.623297,-1.343891 -3.968471,-1.593662 -0.892935,-0.165793 -3.007755,-0.165793 -3.900691,0 -3.880776,0.720569 -7.138169,3.546428 -8.372531,7.263348 -1.47384,4.438015 0.01732,9.280324 3.730458,12.114622 0.877451,0.669755 2.056043,1.294147 3.247555,1.720479 0.139252,0.04987 0.245175,0.111427 0.235389,0.136883 -0.01026,0.02545 -1.818501,4.739843 -4.01936,10.476427 l -4.001567,10.430157 -0.269018,-0.004 c -0.171325,-0.002 -0.645018,-0.15969 -1.30445,-0.43341 z"
         id="path12549" /></mask><filter
       style="color-interpolation-filters:sRGB;"
       inkscape:label="Drop Shadow"
       id="filter3391"
       x="-0.056186835"
       y="-0.059421728"
       width="1.1123737"
       height="1.0936396"><feFlood
         flood-opacity="0.345098"
         flood-color="rgb(0,0,0)"
         result="flood"
         id="feFlood3381" /><feComposite
         in="flood"
         in2="SourceGraphic"
         operator="in"
         result="composite1"
         id="feComposite3383" /><feGaussianBlur
         in="composite1"
         stdDeviation="2"
         result="blur"
         id="feGaussianBlur3385" /><feOffset
         dx="0"
         dy="0"
         result="offset"
         id="feOffset3387" /><feComposite
         in="SourceGraphic"
         in2="offset"
         operator="over"
         result="composite2"
         id="feComposite3389" /></filter><mask
       maskUnits="userSpaceOnUse"
       id="mask3756"><g
         id="g3780"
         transform="matrix(0.97264069,0,0,0.97264069,6.5136443,2.6874673)"><g
           id="g3778"><path
             sodipodi:nodetypes="ccccccc"
             inkscape:connector-curvature="0"
             id="path3758"
             d="M 55.885527,38.002612 V 60.337869 H 33.550269 v 8.82129 c 10.385516,0 20.771032,0 31.156548,0 0,-10.385516 0,-20.771032 0,-31.156547 z"
             style="fill:#ffffff;fill-opacity:1;stroke:#ffffff;stroke-width:5;stroke-linecap:butt;stroke-linejoin:miter;stroke-dasharray:none;stroke-opacity:1" /><path
             sodipodi:nodetypes="ccccccc"
             inkscape:connector-curvature="0"
             id="path3760"
             d="M 112.93644,27.356411 97.143031,43.149822 81.349617,27.356411 75.112024,33.594006 C 82.455693,40.937672 89.799362,48.28134 97.143031,55.625009 104.4867,48.28134 111.83037,40.937672 119.17402,33.594006 Z"
             style="fill:#ffffff;fill-opacity:1;stroke:#ffffff;stroke-width:5;stroke-linecap:butt;stroke-linejoin:miter;stroke-dasharray:none;stroke-opacity:1" /><path
             sodipodi:nodetypes="ccccccc"
             inkscape:connector-curvature="0"
             id="path3762"
             d="m 138.18688,37.932733 v 22.335258 h 22.33524 v 8.821289 c -10.38552,0 -20.77102,0 -31.15654,0 0,-10.385515 0,-20.771031 0,-31.156547 z"
             style="fill:#ffffff;fill-opacity:1;stroke:#ffffff;stroke-width:5;stroke-linecap:butt;stroke-linejoin:miter;stroke-dasharray:none;stroke-opacity:1" /><path
             sodipodi:nodetypes="ccccccc"
             inkscape:connector-curvature="0"
             id="path3764"
             d="M 55.885527,165.06412 V 142.72885 H 33.550269 v -8.82128 c 10.385516,0 20.771032,0 31.156548,0 0,10.38552 0,20.77102 0,31.15655 z"
             style="fill:#ffffff;fill-opacity:1;stroke:#ffffff;stroke-width:5;stroke-linecap:butt;stroke-linejoin:miter;stroke-dasharray:none;stroke-opacity:1" /><path
             sodipodi:nodetypes="ccccccc"
             inkscape:connector-curvature="0"
             id="path3766"
             d="m 138.18688,165.13399 v -22.33525 h 22.33524 v -8.82129 c -10.38552,0 -20.77102,0 -31.15654,0 0,10.38552 0,20.77104 0,31.15654 z"
             style="fill:#ffffff;fill-opacity:1;stroke:#ffffff;stroke-width:5;stroke-linecap:butt;stroke-linejoin:miter;stroke-dasharray:none;stroke-opacity:1" /><path
             sodipodi:nodetypes="ccccccc"
             inkscape:connector-curvature="0"
             id="path3768"
             d="m 22.973944,85.588285 15.793412,15.793415 -15.793412,15.79341 6.237595,6.23759 c 7.343666,-7.34366 14.687335,-14.68733 22.031004,-22.031 C 43.898874,94.038031 36.555205,86.694362 29.211539,79.350705 Z"
             style="fill:#ffffff;fill-opacity:1;stroke:#ffffff;stroke-width:5;stroke-linecap:butt;stroke-linejoin:miter;stroke-dasharray:none;stroke-opacity:1" /><path
             sodipodi:nodetypes="ccccccc"
             inkscape:connector-curvature="0"
             id="path3770"
             d="m 171.32784,85.588281 -15.7934,15.793409 15.7934,15.79342 -6.2376,6.23759 c -7.34367,-7.34367 -14.68733,-14.68734 -22.031,-22.03101 7.34367,-7.343664 14.68733,-14.687333 22.031,-22.03099 z"
             style="fill:#ffffff;fill-opacity:1;stroke:#ffffff;stroke-width:5;stroke-linecap:butt;stroke-linejoin:miter;stroke-dasharray:none;stroke-opacity:1" /><path
             style="color:#000000;fill:#ffffff;fill-opacity:1;stroke-linecap:square;stroke-miterlimit:2.5;stroke-dashoffset:8.50395"
             d="m 97.116524,71.014613 c -7.634301,0 -15.270107,2.89706 -21.0625,8.689453 -11.584786,11.584786 -11.584786,30.536304 0,42.121094 l 3.958984,3.95899 8.277701,-9.05666 c -0.873948,-0.43996 -3.001008,-1.49868 -4.320669,-2.81835 -7.306747,-7.30674 -7.306748,-18.98231 0,-26.289058 7.306748,-7.306748 18.98427,-7.306748 26.29101,0 7.30675,7.306748 7.30675,18.982318 0,26.289058 -1.29619,1.3327 -2.7707,2.01047 -4.47937,2.88824 l 8.43641,8.98677 3.95898,-3.95899 c 11.58479,-11.58479 11.58479,-30.536308 0,-42.121094 -5.79239,-5.792393 -13.42625,-8.689453 -21.060546,-8.689453 z"
             id="path3772"
             sodipodi:nodetypes="sssccssscccsss" /><path
             style="fill:#ffffff;fill-opacity:1;stroke:none;stroke-width:1px;stroke-linecap:butt;stroke-linejoin:miter;stroke-opacity:1"
             d="m 114.45509,125.13904 7.493,42.49495 h -10.82937 l -8.72054,-49.45663 c 1.47045,-0.53108 2.41953,-0.90775 3.3835,-1.37998 z"
             id="path3774"
             sodipodi:nodetypes="cccccc" /><path
             style="fill:#ffffff;fill-opacity:1;stroke:none;stroke-width:1px;stroke-linecap:butt;stroke-linejoin:miter;stroke-opacity:1"
             d="m 79.617297,125.06915 -7.493004,42.49495 h 10.829373 l 8.720538,-49.45663 c -1.470451,-0.53108 -2.419526,-0.90775 -3.383495,-1.37998 z"
             id="path3776"
             sodipodi:nodetypes="cccccc" /></g></g></mask></defs><sodipodi:namedview
     pagecolor="#ffffff"
     bordercolor="#666666"
     borderopacity="1"
     objecttolerance="10"
     gridtolerance="10"
     guidetolerance="10"
     inkscape:pageopacity="0"
     inkscape:pageshadow="2"
     inkscape:window-width="1366"
     inkscape:window-height="697"
     id="namedview32"
     showgrid="false"
     inkscape:zoom="1.405031"
     inkscape:cx="6.7614167"
     inkscape:cy="87.542552"
     inkscape:window-x="-8"
     inkscape:window-y="-8"
     inkscape:window-maximized="1"
     inkscape:current-layer="svg30"
     inkscape:measure-start="285,72.1937"
     inkscape:measure-end="285,127.873"
     showguides="true"
     inkscape:guide-bbox="true"
     fit-margin-top="0"
     fit-margin-left="0"
     fit-margin-right="0"
     fit-margin-bottom="0"
     inkscape:showpageshadow="2"
     inkscape:pagecheckerboard="0"
     inkscape:deskcolor="#d1d1d1" /><title
     id="title2">Flag of the Marshall Islands</title><rect
     style="fill:#ffffff;fill-opacity:1;stroke:none;stroke-width:3;stroke-linecap:square;stroke-miterlimit:2.5;stroke-dashoffset:8.50395"
     id="rect1895"
     width="194.30177"
     height="194.30177"
     x="0"
     y="0" /><g
     id="g2208"
     style="filter:url(#filter3391)"><g
       id="g2206"><path
         sodipodi:nodetypes="ccccccc"
         inkscape:connector-curvature="0"
         id="path2186"
         d="M 55.885527,38.002612 V 60.337869 H 33.550269 v 8.82129 c 10.385516,0 20.771032,0 31.156548,0 0,-10.385516 0,-20.771032 0,-31.156547 z"
         style="fill:#ffffff;fill-opacity:1;stroke:#ffffff;stroke-width:5;stroke-linecap:butt;stroke-linejoin:miter;stroke-dasharray:none;stroke-opacity:1" /><path
         sodipodi:nodetypes="ccccccc"
         inkscape:connector-curvature="0"
         id="path2188"
         d="M 112.93644,27.356411 97.143031,43.149822 81.349617,27.356411 75.112024,33.594006 C 82.455693,40.937672 89.799362,48.28134 97.143031,55.625009 104.4867,48.28134 111.83037,40.937672 119.17402,33.594006 Z"
         style="fill:#ffffff;fill-opacity:1;stroke:#ffffff;stroke-width:5;stroke-linecap:butt;stroke-linejoin:miter;stroke-dasharray:none;stroke-opacity:1" /><path
         sodipodi:nodetypes="ccccccc"
         inkscape:connector-curvature="0"
         id="path2190"
         d="m 138.18688,37.932733 v 22.335258 h 22.33524 v 8.821289 c -10.38552,0 -20.77102,0 -31.15654,0 0,-10.385515 0,-20.771031 0,-31.156547 z"
         style="fill:#ffffff;fill-opacity:1;stroke:#ffffff;stroke-width:5;stroke-linecap:butt;stroke-linejoin:miter;stroke-dasharray:none;stroke-opacity:1" /><path
         sodipodi:nodetypes="ccccccc"
         inkscape:connector-curvature="0"
         id="path2192"
         d="M 55.885527,165.06412 V 142.72885 H 33.550269 v -8.82128 c 10.385516,0 20.771032,0 31.156548,0 0,10.38552 0,20.77102 0,31.15655 z"
         style="fill:#ffffff;fill-opacity:1;stroke:#ffffff;stroke-width:5;stroke-linecap:butt;stroke-linejoin:miter;stroke-dasharray:none;stroke-opacity:1" /><path
         sodipodi:nodetypes="ccccccc"
         inkscape:connector-curvature="0"
         id="path2194"
         d="m 138.18688,165.13399 v -22.33525 h 22.33524 v -8.82129 c -10.38552,0 -20.77102,0 -31.15654,0 0,10.38552 0,20.77104 0,31.15654 z"
         style="fill:#ffffff;fill-opacity:1;stroke:#ffffff;stroke-width:5;stroke-linecap:butt;stroke-linejoin:miter;stroke-dasharray:none;stroke-opacity:1" /><path
         sodipodi:nodetypes="ccccccc"
         inkscape:connector-curvature="0"
         id="path2196"
         d="m 22.973944,85.588285 15.793412,15.793415 -15.793412,15.79341 6.237595,6.23759 c 7.343666,-7.34366 14.687335,-14.68733 22.031004,-22.031 C 43.898874,94.038031 36.555205,86.694362 29.211539,79.350705 Z"
         style="fill:#ffffff;fill-opacity:1;stroke:#ffffff;stroke-width:5;stroke-linecap:butt;stroke-linejoin:miter;stroke-dasharray:none;stroke-opacity:1" /><path
         sodipodi:nodetypes="ccccccc"
         inkscape:connector-curvature="0"
         id="path2198"
         d="m 171.32784,85.588281 -15.7934,15.793409 15.7934,15.79342 -6.2376,6.23759 c -7.34367,-7.34367 -14.68733,-14.68734 -22.031,-22.03101 7.34367,-7.343664 14.68733,-14.687333 22.031,-22.03099 z"
         style="fill:#ffffff;fill-opacity:1;stroke:#ffffff;stroke-width:5;stroke-linecap:butt;stroke-linejoin:miter;stroke-dasharray:none;stroke-opacity:1" /><path
         style="color:#000000;fill:#ffffff;fill-opacity:1;stroke-linecap:square;stroke-miterlimit:2.5;stroke-dashoffset:8.50395"
         d="m 97.116524,71.014613 c -7.634301,0 -15.270107,2.89706 -21.0625,8.689453 -11.584786,11.584786 -11.584786,30.536304 0,42.121094 l 3.958984,3.95899 8.277701,-9.05666 c -0.873948,-0.43996 -3.001008,-1.49868 -4.320669,-2.81835 -7.306747,-7.30674 -7.306748,-18.98231 0,-26.289058 7.306748,-7.306748 18.98427,-7.306748 26.29101,0 7.30675,7.306748 7.30675,18.982318 0,26.289058 -1.29619,1.3327 -2.7707,2.01047 -4.47937,2.88824 l 8.43641,8.98677 3.95898,-3.95899 c 11.58479,-11.58479 11.58479,-30.536308 0,-42.121094 -5.79239,-5.792393 -13.42625,-8.689453 -21.060546,-8.689453 z"
         id="path2200"
         sodipodi:nodetypes="sssccssscccsss" /><path
         style="fill:#ffffff;fill-opacity:1;stroke:none;stroke-width:1px;stroke-linecap:butt;stroke-linejoin:miter;stroke-opacity:1"
         d="m 114.45509,125.13904 7.493,42.49495 h -10.82937 l -8.72054,-49.45663 c 1.47045,-0.53108 2.41953,-0.90775 3.3835,-1.37998 z"
         id="path2202"
         sodipodi:nodetypes="cccccc" /><path
         style="fill:#ffffff;fill-opacity:1;stroke:none;stroke-width:1px;stroke-linecap:butt;stroke-linejoin:miter;stroke-opacity:1"
         d="m 79.617297,125.06915 -7.493004,42.49495 h 10.829373 l 8.720538,-49.45663 c -1.470451,-0.53108 -2.419526,-0.90775 -3.383495,-1.37998 z"
         id="path2204"
         sodipodi:nodetypes="cccccc" /></g></g><g
     id="g5028"
     transform="matrix(1.0281289,0,0,1.0281289,-6.696866,-2.7630628)"
     mask="url(#mask3756)"><path
       fill="#5bcefa"
       d="M -66.077352,25.256734 H 238.07746 V 177.33414 H -66.077352 Z"
       id="path3576"
       style="stroke-width:0.380194" /><path
       fill="#f5a9b8"
       d="M -66.077352,55.672215 H 238.07746 V 146.91866 H -66.077352 Z"
       id="path3578"
       style="stroke-width:0.380194" /><path
       fill="#ffffff"
       d="M -66.077352,86.087696 H 238.07746 V 116.50318 H -66.077352 Z"
       id="path3580"
       style="stroke-width:0.380194" /></g></svg>
