<svg xmlns="http://www.w3.org/2000/svg" xmlns:svg="http://www.w3.org/2000/svg" id="svg30" width="545.551" height="272.775" version="1.1" xml:space="preserve"><metadata id="metadata36"/><defs id="defs34"><rect id="rect5261" width="612.835" height="237.717" x="-214.942" y="189.32"/><rect id="rect23305" width="259.304" height="58.616" x="183.391" y="91.559"/><rect id="rect21724" width="351.869" height="101.66" x="155.425" y="0"/><mask id="mask12539" maskUnits="userSpaceOnUse"><path style="fill:#fff;fill-opacity:1;stroke:none;stroke-width:.0672533;stroke-opacity:1" id="path12541" d="M 61.472032,106.18291 C 53.58256,102.90807 47.3902,97.004959 43.823805,89.359025 41.133943,83.592288 40.145108,77.229746 40.956672,70.910888 c 0.84886,-6.609211 3.66517,-12.826596 8.103401,-17.889354 0.829397,-0.946109 2.562065,-2.630138 3.59105,-3.490238 5.392221,-4.50725 11.970978,-7.181399 19.054719,-7.745428 1.308973,-0.104219 4.878235,-0.04646 6.101733,0.0987 6.702446,0.795368 12.816083,3.404383 17.888959,7.634147 0.963524,0.803384 2.775424,2.568269 3.596128,3.502807 6.916238,7.875564 9.777468,18.500601 7.733288,28.717122 -1.29292,6.461807 -4.48746,12.450654 -9.103746,17.06695 -2.137371,2.137386 -4.483685,3.944616 -7.001115,5.392586 -1.846911,1.06231 -4.869297,2.42543 -5.372264,2.42295 l -0.242518,-10e-4 -4.001565,-10.430157 c -2.200861,-5.736584 -4.009011,-10.449651 -4.018113,-10.47348 -0.0091,-0.0238 0.248144,-0.146198 0.571653,-0.271912 1.977541,-0.768479 3.437264,-1.797009 4.686575,-3.302221 1.236694,-1.490016 1.971575,-3.066061 2.3676,-5.077626 0.163367,-0.82979 0.164376,-2.838903 0.0018,-3.711449 -0.566946,-3.044052 -2.262816,-5.60616 -4.819603,-7.281409 -1.145062,-0.750263 -2.623297,-1.343891 -3.968471,-1.593662 -0.892935,-0.165793 -3.007755,-0.165793 -3.900691,0 -3.880776,0.720569 -7.138169,3.546428 -8.372531,7.263348 -1.47384,4.438015 0.01732,9.280324 3.730458,12.114622 0.877451,0.669755 2.056043,1.294147 3.247555,1.720479 0.139252,0.04987 0.245175,0.111427 0.235389,0.136883 -0.01026,0.02545 -1.818501,4.739843 -4.01936,10.476427 l -4.001567,10.430157 -0.269018,-0.004 c -0.171325,-0.002 -0.645018,-0.15969 -1.30445,-0.43341 z"/></mask><mask id="mask12543" maskUnits="userSpaceOnUse"><path style="fill:#fff;fill-opacity:1;stroke:none;stroke-width:.0672533;stroke-opacity:1" id="path12545" d="M 61.472032,106.18291 C 53.58256,102.90807 47.3902,97.004959 43.823805,89.359025 41.133943,83.592288 40.145108,77.229746 40.956672,70.910888 c 0.84886,-6.609211 3.66517,-12.826596 8.103401,-17.889354 0.829397,-0.946109 2.562065,-2.630138 3.59105,-3.490238 5.392221,-4.50725 11.970978,-7.181399 19.054719,-7.745428 1.308973,-0.104219 4.878235,-0.04646 6.101733,0.0987 6.702446,0.795368 12.816083,3.404383 17.888959,7.634147 0.963524,0.803384 2.775424,2.568269 3.596128,3.502807 6.916238,7.875564 9.777468,18.500601 7.733288,28.717122 -1.29292,6.461807 -4.48746,12.450654 -9.103746,17.06695 -2.137371,2.137386 -4.483685,3.944616 -7.001115,5.392586 -1.846911,1.06231 -4.869297,2.42543 -5.372264,2.42295 l -0.242518,-10e-4 -4.001565,-10.430157 c -2.200861,-5.736584 -4.009011,-10.449651 -4.018113,-10.47348 -0.0091,-0.0238 0.248144,-0.146198 0.571653,-0.271912 1.977541,-0.768479 3.437264,-1.797009 4.686575,-3.302221 1.236694,-1.490016 1.971575,-3.066061 2.3676,-5.077626 0.163367,-0.82979 0.164376,-2.838903 0.0018,-3.711449 -0.566946,-3.044052 -2.262816,-5.60616 -4.819603,-7.281409 -1.145062,-0.750263 -2.623297,-1.343891 -3.968471,-1.593662 -0.892935,-0.165793 -3.007755,-0.165793 -3.900691,0 -3.880776,0.720569 -7.138169,3.546428 -8.372531,7.263348 -1.47384,4.438015 0.01732,9.280324 3.730458,12.114622 0.877451,0.669755 2.056043,1.294147 3.247555,1.720479 0.139252,0.04987 0.245175,0.111427 0.235389,0.136883 -0.01026,0.02545 -1.818501,4.739843 -4.01936,10.476427 l -4.001567,10.430157 -0.269018,-0.004 c -0.171325,-0.002 -0.645018,-0.15969 -1.30445,-0.43341 z"/></mask><mask id="mask12547" maskUnits="userSpaceOnUse"><path style="fill:#fff;fill-opacity:1;stroke:none;stroke-width:.0672533;stroke-opacity:1" id="path12549" d="M 61.472032,106.18291 C 53.58256,102.90807 47.3902,97.004959 43.823805,89.359025 41.133943,83.592288 40.145108,77.229746 40.956672,70.910888 c 0.84886,-6.609211 3.66517,-12.826596 8.103401,-17.889354 0.829397,-0.946109 2.562065,-2.630138 3.59105,-3.490238 5.392221,-4.50725 11.970978,-7.181399 19.054719,-7.745428 1.308973,-0.104219 4.878235,-0.04646 6.101733,0.0987 6.702446,0.795368 12.816083,3.404383 17.888959,7.634147 0.963524,0.803384 2.775424,2.568269 3.596128,3.502807 6.916238,7.875564 9.777468,18.500601 7.733288,28.717122 -1.29292,6.461807 -4.48746,12.450654 -9.103746,17.06695 -2.137371,2.137386 -4.483685,3.944616 -7.001115,5.392586 -1.846911,1.06231 -4.869297,2.42543 -5.372264,2.42295 l -0.242518,-10e-4 -4.001565,-10.430157 c -2.200861,-5.736584 -4.009011,-10.449651 -4.018113,-10.47348 -0.0091,-0.0238 0.248144,-0.146198 0.571653,-0.271912 1.977541,-0.768479 3.437264,-1.797009 4.686575,-3.302221 1.236694,-1.490016 1.971575,-3.066061 2.3676,-5.077626 0.163367,-0.82979 0.164376,-2.838903 0.0018,-3.711449 -0.566946,-3.044052 -2.262816,-5.60616 -4.819603,-7.281409 -1.145062,-0.750263 -2.623297,-1.343891 -3.968471,-1.593662 -0.892935,-0.165793 -3.007755,-0.165793 -3.900691,0 -3.880776,0.720569 -7.138169,3.546428 -8.372531,7.263348 -1.47384,4.438015 0.01732,9.280324 3.730458,12.114622 0.877451,0.669755 2.056043,1.294147 3.247555,1.720479 0.139252,0.04987 0.245175,0.111427 0.235389,0.136883 -0.01026,0.02545 -1.818501,4.739843 -4.01936,10.476427 l -4.001567,10.430157 -0.269018,-0.004 c -0.171325,-0.002 -0.645018,-0.15969 -1.30445,-0.43341 z"/></mask></defs><title id="title2">Flag of the Marshall Islands</title><rect style="fill:#9063cd;stroke:none;stroke-width:3.2733;stroke-linecap:square;stroke-miterlimit:2.5;stroke-dashoffset:8.50395;fill-opacity:1" id="rect5367" width="545.551" height="272.775" x="0" y="0"/><path id="path897" d="M 77.794195,76.845793 V 99.18105 H 55.458937 v 8.82129 c 10.385516,0 20.771032,0 31.156548,0 0,-10.385516 0,-20.771032 0,-31.156547 z" style="fill:#fff;fill-opacity:1;stroke:#fff;stroke-width:5;stroke-linecap:butt;stroke-linejoin:miter;stroke-dasharray:none;stroke-opacity:1"/><path id="path897-6" d="M 134.84511,66.199591 119.0517,81.993003 103.25829,66.199591 97.020692,72.437187 c 7.343668,7.343666 14.687338,14.687334 22.031008,22.031003 7.34367,-7.343669 14.68733,-14.687337 22.03099,-22.031003 z" style="fill:#fff;fill-opacity:1;stroke:#fff;stroke-width:5;stroke-linecap:butt;stroke-linejoin:miter;stroke-dasharray:none;stroke-opacity:1"/><path id="path897-7" d="m 160.09555,76.775914 v 22.335258 h 22.33524 v 8.821288 c -10.38552,0 -20.77102,0 -31.15654,0 0,-10.385514 0,-20.77103 0,-31.156546 z" style="fill:#fff;fill-opacity:1;stroke:#fff;stroke-width:5;stroke-linecap:butt;stroke-linejoin:miter;stroke-dasharray:none;stroke-opacity:1"/><path id="path897-3" d="M 77.794195,203.9073 V 181.57203 H 55.458937 v -8.82128 c 10.385516,0 20.771032,0 31.156548,0 0,10.38552 0,20.77102 0,31.15655 z" style="fill:#fff;fill-opacity:1;stroke:#fff;stroke-width:5;stroke-linecap:butt;stroke-linejoin:miter;stroke-dasharray:none;stroke-opacity:1"/><path id="path897-7-6" d="m 160.09555,203.97717 v -22.33525 h 22.33524 v -8.82129 c -10.38552,0 -20.77102,0 -31.15654,0 0,10.38552 0,20.77104 0,31.15654 z" style="fill:#fff;fill-opacity:1;stroke:#fff;stroke-width:5;stroke-linecap:butt;stroke-linejoin:miter;stroke-dasharray:none;stroke-opacity:1"/><path id="path897-6-1" d="m 44.882612,124.43147 15.793412,15.79341 -15.793412,15.79341 6.237595,6.23759 c 7.343666,-7.34366 14.687335,-14.68733 22.031004,-22.031 -7.343669,-7.34367 -14.687338,-14.68734 -22.031004,-22.03099 z" style="fill:#fff;fill-opacity:1;stroke:#fff;stroke-width:5;stroke-linecap:butt;stroke-linejoin:miter;stroke-dasharray:none;stroke-opacity:1"/><path id="path897-6-5-9" d="m 193.23651,124.43146 -15.7934,15.79341 15.7934,15.79342 -6.2376,6.23759 c -7.34367,-7.34367 -14.68733,-14.68734 -22.031,-22.03101 7.34367,-7.34366 14.68733,-14.68733 22.031,-22.03099 z" style="fill:#fff;fill-opacity:1;stroke:#fff;stroke-width:5;stroke-linecap:butt;stroke-linejoin:miter;stroke-dasharray:none;stroke-opacity:1"/><path style="color:#000;fill:#fff;fill-opacity:1;stroke-linecap:square;stroke-miterlimit:2.5;stroke-dashoffset:8.50395;-inkscape-stroke:none" id="path15729" d="m 119.02519,109.85779 c -7.6343,0 -15.2701,2.89706 -21.062498,8.68946 -11.584786,11.58478 -11.584786,30.5363 0,42.12109 l 3.958988,3.95899 8.2777,-9.05666 c -0.87395,-0.43996 -3.00101,-1.49868 -4.32067,-2.81835 -7.306749,-7.30674 -7.30675,-18.98231 0,-26.28906 7.30675,-7.30675 18.98427,-7.30675 26.29101,0 7.30675,7.30675 7.30675,18.98232 0,26.28906 -1.2962,1.3327 -2.77071,2.01047 -4.47938,2.88824 l 8.43642,8.98677 3.95898,-3.95899 c 11.58479,-11.58479 11.58479,-30.53631 0,-42.12109 -5.79239,-5.7924 -13.42625,-8.68946 -21.06055,-8.68946 z"/><path style="fill:#fff;fill-opacity:1;stroke:none;stroke-width:1px;stroke-linecap:butt;stroke-linejoin:miter;stroke-opacity:1" id="path15731" d="m 136.36376,163.98222 7.493,42.49495 h -10.82937 l -8.72054,-49.45663 c 1.47045,-0.53108 2.41953,-0.90775 3.38349,-1.37998 z"/><path style="fill:#fff;fill-opacity:1;stroke:none;stroke-width:1px;stroke-linecap:butt;stroke-linejoin:miter;stroke-opacity:1" id="path15731-2" d="m 101.52597,163.91233 -7.493009,42.49495 h 10.829369 l 8.72054,-49.45663 c -1.47045,-0.53108 -2.41952,-0.90775 -3.38349,-1.37998 z"/><g id="text21722" aria-label="COS" transform="matrix(18.026668,0,0,18.026668,-2578.4777,32.937456)" style="font-size:8px;line-height:1.25;letter-spacing:-.353536px;white-space:pre;shape-inside:url(#rect21724);fill:#fff;fill-opacity:1"><path d="m 158.49778,7.4373333 q -0.568,0 -1.068,-0.224 -0.5,-0.228 -0.88,-0.628 -0.376,-0.4 -0.592,-0.924 -0.212,-0.528 -0.212,-1.128 0,-0.604 0.212,-1.128 0.216,-0.528 0.592,-0.924 0.38,-0.4 0.88,-0.624 0.5,-0.228 1.068,-0.228 0.68,0 1.252,0.316 0.572,0.312 0.948,0.836 l -1.072,0.576 q -0.208,-0.24 -0.5,-0.384 -0.292,-0.144 -0.628,-0.144 -0.32,0 -0.604,0.132 -0.28,0.132 -0.496,0.368 -0.212,0.232 -0.332,0.54 -0.12,0.308 -0.12,0.664 0,0.352 0.12,0.66 0.12,0.308 0.332,0.544 0.216,0.232 0.496,0.368 0.284,0.132 0.604,0.132 0.336,0 0.628,-0.144 0.292,-0.148 0.5,-0.392 l 1.072,0.584 q -0.376,0.52 -0.948,0.836 -0.572,0.316 -1.252,0.316 z" style="font-weight:900;font-family:Urbanist;-inkscape-font-specification:'Urbanist Heavy';fill:#fff;fill-opacity:1" id="path27854"/><path d="m 163.62425,7.4373333 q -0.568,0 -1.068,-0.224 -0.5,-0.228 -0.88,-0.628 -0.38,-0.4 -0.596,-0.924 -0.216,-0.528 -0.216,-1.128 0,-0.6 0.216,-1.124 0.216,-0.528 0.596,-0.928 0.38,-0.4 0.88,-0.624 0.5,-0.228 1.068,-0.228 0.572,0 1.072,0.228 0.5,0.224 0.88,0.624 0.38,0.4 0.592,0.928 0.216,0.524 0.216,1.124 0,0.6 -0.216,1.128 -0.212,0.524 -0.592,0.924 -0.38,0.4 -0.88,0.628 -0.5,0.224 -1.072,0.224 z m 0,-1.2 q 0.32,0 0.6,-0.132 0.284,-0.136 0.5,-0.368 0.216,-0.236 0.336,-0.544 0.124,-0.308 0.124,-0.66 0,-0.352 -0.124,-0.66 -0.12,-0.308 -0.336,-0.54 -0.216,-0.236 -0.5,-0.368 -0.28,-0.136 -0.6,-0.136 -0.32,0 -0.604,0.136 -0.28,0.132 -0.496,0.368 -0.216,0.232 -0.34,0.54 -0.12,0.308 -0.12,0.66 0,0.352 0.12,0.66 0.124,0.308 0.34,0.544 0.216,0.232 0.496,0.368 0.284,0.132 0.604,0.132 z" style="font-weight:900;font-family:Urbanist;-inkscape-font-specification:'Urbanist Heavy';fill:#fff;fill-opacity:1" id="path27856"/><path d="m 168.87871,7.4373333 q -0.472,0 -0.904,-0.148 -0.432,-0.152 -0.756,-0.432 -0.324,-0.284 -0.468,-0.676 l 1.128,-0.416 q 0.04,0.116 0.176,0.224 0.14,0.108 0.352,0.18 0.212,0.068 0.472,0.068 0.24,0 0.452,-0.068 0.212,-0.072 0.344,-0.196 0.132,-0.124 0.132,-0.288 0,-0.168 -0.14,-0.276 -0.136,-0.112 -0.352,-0.176 -0.212,-0.068 -0.436,-0.1 -0.608,-0.088 -1.092,-0.288 -0.48,-0.204 -0.76,-0.56 -0.276,-0.356 -0.276,-0.904 0,-0.524 0.296,-0.916 0.296,-0.396 0.78,-0.616 0.488,-0.22 1.052,-0.22 0.472,0 0.904,0.152 0.436,0.148 0.76,0.432 0.324,0.284 0.464,0.68 l -1.128,0.408 q -0.04,-0.116 -0.18,-0.22 -0.136,-0.108 -0.348,-0.176 -0.212,-0.068 -0.472,-0.068 -0.232,-0.004 -0.444,0.068 -0.212,0.072 -0.348,0.196 -0.136,0.124 -0.136,0.28 0,0.216 0.128,0.324 0.128,0.104 0.336,0.148 0.212,0.044 0.464,0.08 0.576,0.084 1.06,0.3 0.484,0.216 0.776,0.576 0.292,0.36 0.292,0.876 0,0.524 -0.296,0.92 -0.292,0.392 -0.776,0.612 -0.484,0.22 -1.056,0.22 z" style="font-weight:900;font-family:Urbanist;-inkscape-font-specification:'Urbanist Heavy';fill:#fff;fill-opacity:1" id="path27858"/></g><g id="text23303" aria-label="clube open source" transform="matrix(4.3099125,0,0,4.3099125,-558.15016,-224.36898)" style="font-size:8px;line-height:1.25;white-space:pre;shape-inside:url(#rect23305);fill:#fff;fill-opacity:1"><path d="m 186.84262,97.951927 0.38401,0.208 q -0.27201,0.38 -0.69201,0.608 -0.416,0.228 -0.904,0.228 -0.552,0 -1.008,-0.284 -0.452,-0.284 -0.724,-0.76 -0.268,-0.48 -0.268,-1.06 0,-0.44 0.156,-0.82 0.156,-0.384 0.428,-0.672 0.276,-0.292 0.64,-0.456 0.364,-0.164 0.776,-0.164 0.488,0 0.904,0.228 0.42,0.228 0.69201,0.612 l -0.38401,0.204 q -0.228,-0.296 -0.552,-0.452 -0.324,-0.16 -0.66,-0.16 -0.44,0 -0.796,0.232 -0.356,0.228 -0.564,0.612 -0.208,0.38 -0.208,0.836 0,0.46 0.212,0.84 0.212,0.38 0.568,0.608 0.356,0.224 0.788,0.224 0.36401,0 0.684,-0.172 0.32,-0.172 0.528,-0.44 z" style="font-weight:300;font-family:Urbanist;-inkscape-font-specification:'Urbanist Light';fill:#fff;fill-opacity:1" id="path27861"/><path d="m 187.91542,98.891927 v -6 h 0.432 v 6 z" style="font-weight:300;font-family:Urbanist;-inkscape-font-specification:'Urbanist Light';fill:#fff;fill-opacity:1" id="path27863"/><path d="m 189.14742,97.343927 v -2.452 h 0.432 v 2.384 q 0,0.356 0.172,0.648 0.176,0.292 0.468,0.464 0.292,0.172 0.644,0.172 0.356,0 0.644,-0.172 0.292,-0.172 0.464,-0.464 0.176,-0.292 0.176,-0.648 v -2.384 h 0.432 v 4 h -0.432 v -0.62 q -0.216,0.328 -0.572,0.528 -0.352,0.196 -0.776,0.196 -0.456,0 -0.832,-0.22 -0.376,-0.224 -0.6,-0.6 -0.22,-0.376 -0.22,-0.832 z" style="font-weight:300;font-family:Urbanist;-inkscape-font-specification:'Urbanist Light';fill:#fff;fill-opacity:1" id="path27865"/><path d="m 195.38263,94.779927 q 0.58,0 1.056,0.284 0.48,0.284 0.764,0.764 0.284,0.476 0.284,1.06 0,0.436 -0.164,0.82 -0.164,0.38 -0.456,0.672 -0.288,0.288 -0.668,0.452 -0.38,0.164 -0.816,0.164 -0.532,0 -0.916,-0.256 -0.38,-0.256 -0.592,-0.672 v 0.824 h -0.432 v -6 h 0.432 v 2.816 q 0.212,-0.416 0.592,-0.672 0.384,-0.256 0.916,-0.256 z m -0.004,3.792 q 0.464,0 0.84,-0.228 0.38,-0.228 0.604,-0.608 0.228,-0.384 0.228,-0.848 0,-0.472 -0.232,-0.852 -0.232,-0.384 -0.612,-0.608 -0.376,-0.224 -0.828,-0.224 -0.46,0 -0.792,0.228 -0.328,0.228 -0.504,0.612 -0.176,0.384 -0.176,0.844 0,0.472 0.176,0.852 0.18,0.38 0.508,0.608 0.332,0.224 0.788,0.224 z" style="font-weight:300;font-family:Urbanist;-inkscape-font-specification:'Urbanist Light';fill:#fff;fill-opacity:1" id="path27867"/><path d="m 199.88664,98.995927 q -0.552,0 -1.008,-0.284 -0.452,-0.284 -0.724,-0.76 -0.268,-0.48 -0.268,-1.06 0,-0.44 0.156,-0.82 0.156,-0.384 0.428,-0.672 0.276,-0.292 0.64,-0.456 0.364,-0.164 0.776,-0.164 0.436,0 0.804,0.172 0.372,0.168 0.64,0.476 0.268,0.308 0.412,0.728 0.144,0.416 0.132,0.912 h -3.536 q 0.044,0.428 0.256,0.768 0.216,0.336 0.552,0.532 0.336,0.192 0.74,0.196 0.444,0 0.8,-0.232 0.356,-0.236 0.572,-0.644 l 0.436,0.1 q -0.24,0.532 -0.724,0.872 -0.484,0.336 -1.084,0.336 z m -1.56,-2.296 h 3.112 q -0.024,-0.412 -0.24,-0.756 -0.212,-0.348 -0.556,-0.556 -0.344,-0.208 -0.756,-0.208 -0.412,0 -0.752,0.204 -0.34,0.204 -0.556,0.552 -0.212,0.344 -0.252,0.764 z" style="font-weight:300;font-family:Urbanist;-inkscape-font-specification:'Urbanist Light';fill:#fff;fill-opacity:1" id="path27869"/><path d="m 206.27464,98.995927 q -0.552,0 -1.008,-0.284 -0.452,-0.284 -0.724,-0.76 -0.268,-0.48 -0.268,-1.06 0,-0.44 0.156,-0.82 0.156,-0.384 0.428,-0.672 0.276,-0.292 0.64,-0.456 0.364,-0.164 0.776,-0.164 0.552,0 1.004,0.284 0.456,0.284 0.724,0.764 0.272,0.48 0.272,1.064 0,0.436 -0.156,0.816 -0.156,0.38 -0.432,0.672 -0.272,0.288 -0.636,0.452 -0.36,0.164 -0.776,0.164 z m 0,-0.432 q 0.444,0 0.796,-0.232 0.356,-0.232 0.564,-0.612 0.208,-0.38 0.208,-0.828 0,-0.452 -0.208,-0.836 -0.208,-0.384 -0.564,-0.612 -0.356,-0.232 -0.796,-0.232 -0.444,0 -0.8,0.232 -0.356,0.232 -0.564,0.616 -0.204,0.38 -0.204,0.832 0,0.468 0.212,0.848 0.216,0.376 0.572,0.6 0.356,0.224 0.784,0.224 z" style="font-weight:300;font-family:Urbanist;-inkscape-font-specification:'Urbanist Light';fill:#fff;fill-opacity:1" id="path27871"/><path d="m 209.40265,100.89193 h -0.432 v -6.000003 h 0.432 v 0.824 q 0.212,-0.416 0.592,-0.672 0.384,-0.256 0.916,-0.256 0.436,0 0.816,0.164 0.38,0.164 0.668,0.456 0.292,0.288 0.456,0.668 0.164,0.38 0.164,0.816 0,0.436 -0.164,0.82 -0.164,0.384 -0.456,0.676 -0.288,0.288 -0.668,0.452 -0.38,0.164 -0.816,0.164 -0.532,0 -0.916,-0.256 -0.38,-0.256 -0.592,-0.672 z m 1.504,-5.680003 q -0.456,0 -0.788,0.228 -0.328,0.224 -0.508,0.604 -0.176,0.38 -0.176,0.848 0,0.46 0.176,0.844 0.176,0.384 0.504,0.616 0.332,0.228 0.792,0.228 0.452,0 0.828,-0.224 0.38,-0.224 0.612,-0.604 0.232,-0.384 0.232,-0.86 0,-0.46 -0.228,-0.84 -0.224,-0.384 -0.604,-0.612 -0.376,-0.228 -0.84,-0.228 z" style="font-weight:300;font-family:Urbanist;-inkscape-font-specification:'Urbanist Light';fill:#fff;fill-opacity:1" id="path27873"/><path d="m 215.41465,98.995927 q -0.552,0 -1.008,-0.284 -0.452,-0.284 -0.724,-0.76 -0.268,-0.48 -0.268,-1.06 0,-0.44 0.156,-0.82 0.156,-0.384 0.428,-0.672 0.276,-0.292 0.64,-0.456 0.364,-0.164 0.776,-0.164 0.436,0 0.804,0.172 0.372,0.168 0.64,0.476 0.268,0.308 0.412,0.728 0.144,0.416 0.132,0.912 h -3.536 q 0.044,0.428 0.256,0.768 0.216,0.336 0.552,0.532 0.336,0.192 0.74,0.196 0.444,0 0.8,-0.232 0.356,-0.236 0.572,-0.644 l 0.436,0.1 q -0.24,0.532 -0.724,0.872 -0.484,0.336 -1.084,0.336 z m -1.56,-2.296 h 3.112 q -0.024,-0.412 -0.24,-0.756 -0.212,-0.348 -0.556,-0.556 -0.344,-0.208 -0.756,-0.208 -0.412,0 -0.752,0.204 -0.34,0.204 -0.556,0.552 -0.212,0.344 -0.252,0.764 z" style="font-weight:300;font-family:Urbanist;-inkscape-font-specification:'Urbanist Light';fill:#fff;fill-opacity:1" id="path27875"/><path d="m 221.53067,96.431927 v 2.46 h -0.432 v -2.392 q 0,-0.356 -0.172,-0.648 -0.172,-0.292 -0.464,-0.464 -0.292,-0.172 -0.648,-0.172 -0.352,0 -0.644,0.172 -0.292,0.172 -0.468,0.464 -0.172,0.292 -0.172,0.648 v 2.392 h -0.432 v -4 h 0.432 v 0.612 q 0.216,-0.332 0.572,-0.528 0.356,-0.196 0.776,-0.196 0.46,0 0.832,0.224 0.376,0.22 0.596,0.596 0.224,0.376 0.224,0.832 z" style="font-weight:300;font-family:Urbanist;-inkscape-font-specification:'Urbanist Light';fill:#fff;fill-opacity:1" id="path27877"/><path d="m 225.50266,98.967927 q -0.332,-0.004 -0.652,-0.116 -0.316,-0.116 -0.552,-0.308 -0.236,-0.192 -0.328,-0.436 l 0.38,-0.164 q 0.068,0.18 0.26,0.324 0.196,0.144 0.44,0.228 0.248,0.08 0.484,0.08 0.268,0 0.504,-0.092 0.236,-0.092 0.384,-0.26 0.148,-0.168 0.148,-0.396 0,-0.24 -0.156,-0.376 -0.156,-0.14 -0.4,-0.224 -0.24,-0.088 -0.496,-0.164 -0.44,-0.128 -0.764,-0.26 -0.32,-0.136 -0.496,-0.344 -0.176,-0.208 -0.176,-0.548 0,-0.352 0.204,-0.612 0.204,-0.26 0.536,-0.4 0.332,-0.144 0.712,-0.144 0.492,0 0.892,0.216 0.404,0.216 0.568,0.568 l -0.352,0.208 q -0.08,-0.184 -0.252,-0.316 -0.172,-0.132 -0.392,-0.204 -0.22,-0.072 -0.444,-0.076 -0.28,-0.004 -0.524,0.088 -0.24,0.088 -0.388,0.26 -0.148,0.168 -0.148,0.408 0,0.24 0.136,0.368 0.136,0.128 0.38,0.208 0.244,0.076 0.564,0.18 0.372,0.116 0.692,0.26 0.324,0.14 0.52,0.352 0.2,0.212 0.196,0.548 0,0.352 -0.212,0.612 -0.208,0.26 -0.548,0.4 -0.336,0.14 -0.72,0.132 z" style="font-weight:300;font-family:Urbanist;-inkscape-font-specification:'Urbanist Light';fill:#fff;fill-opacity:1" id="path27879"/><path d="m 229.41786,98.995927 q -0.552,0 -1.008,-0.284 -0.452,-0.284 -0.724,-0.76 -0.268,-0.48 -0.268,-1.06 0,-0.44 0.156,-0.82 0.156,-0.384 0.428,-0.672 0.276,-0.292 0.64,-0.456 0.364,-0.164 0.776,-0.164 0.552,0 1.004,0.284 0.456,0.284 0.724,0.764 0.272,0.48 0.272,1.064 0,0.436 -0.156,0.816 -0.156,0.38 -0.432,0.672 -0.272,0.288 -0.636,0.452 -0.36,0.164 -0.776,0.164 z m 0,-0.432 q 0.444,0 0.796,-0.232 0.356,-0.232 0.564,-0.612 0.208,-0.38 0.208,-0.828 0,-0.452 -0.208,-0.836 -0.208,-0.384 -0.564,-0.612 -0.356,-0.232 -0.796,-0.232 -0.444,0 -0.8,0.232 -0.356,0.232 -0.564,0.616 -0.204,0.38 -0.204,0.832 0,0.468 0.212,0.848 0.216,0.376 0.572,0.6 0.356,0.224 0.784,0.224 z" style="font-weight:300;font-family:Urbanist;-inkscape-font-specification:'Urbanist Light';fill:#fff;fill-opacity:1" id="path27881"/><path d="m 231.92985,97.343927 v -2.452 h 0.432 v 2.384 q 0,0.356 0.172,0.648 0.176,0.292 0.468,0.464 0.292,0.172 0.644,0.172 0.356,0 0.644,-0.172 0.292,-0.172 0.464,-0.464 0.176,-0.292 0.176,-0.648 v -2.384 h 0.432 v 4 h -0.432 v -0.62 q -0.216,0.328 -0.572,0.528 -0.352,0.196 -0.776,0.196 -0.456,0 -0.832,-0.22 -0.376,-0.224 -0.6,-0.6 -0.22,-0.376 -0.22,-0.832 z" style="font-weight:300;font-family:Urbanist;-inkscape-font-specification:'Urbanist Light';fill:#fff;fill-opacity:1" id="path27883"/><path d="m 236.16185,98.891927 v -4 h 0.432 v 0.612 q 0.216,-0.332 0.572,-0.528 0.356,-0.196 0.776,-0.196 0.236,0 0.452,0.06 l -0.18,0.424 q -0.172,-0.048 -0.336,-0.048 -0.352,0 -0.644,0.172 -0.292,0.172 -0.468,0.464 -0.172,0.292 -0.172,0.648 v 2.392 z" style="font-weight:300;font-family:Urbanist;-inkscape-font-specification:'Urbanist Light';fill:#fff;fill-opacity:1" id="path27885"/><path d="m 241.66906,97.951927 0.384,0.208 q -0.272,0.38 -0.692,0.608 -0.416,0.228 -0.904,0.228 -0.552,0 -1.008,-0.284 -0.452,-0.284 -0.724,-0.76 -0.268,-0.48 -0.268,-1.06 0,-0.44 0.156,-0.82 0.156,-0.384 0.428,-0.672 0.276,-0.292 0.64,-0.456 0.364,-0.164 0.776,-0.164 0.488,0 0.904,0.228 0.42,0.228 0.692,0.612 l -0.384,0.204 q -0.228,-0.296 -0.552,-0.452 -0.324,-0.16 -0.66,-0.16 -0.44,0 -0.796,0.232 -0.356,0.228 -0.564,0.612 -0.208,0.38 -0.208,0.836 0,0.46 0.212,0.84 0.212,0.38 0.568,0.608 0.356,0.224 0.788,0.224 0.364,0 0.684,-0.172 0.32,-0.172 0.528,-0.44 z" style="font-weight:300;font-family:Urbanist;-inkscape-font-specification:'Urbanist Light';fill:#fff;fill-opacity:1" id="path27887"/><path d="m 244.50186,98.995927 q -0.552,0 -1.008,-0.284 -0.452,-0.284 -0.724,-0.76 -0.268,-0.48 -0.268,-1.06 0,-0.44 0.156,-0.82 0.156,-0.384 0.428,-0.672 0.276,-0.292 0.64,-0.456 0.364,-0.164 0.776,-0.164 0.436,0 0.804,0.172 0.372,0.168 0.64,0.476 0.268,0.308 0.412,0.728 0.144,0.416 0.132,0.912 h -3.536 q 0.044,0.428 0.256,0.768 0.216,0.336 0.552,0.532 0.336,0.192 0.74,0.196 0.444,0 0.8,-0.232 0.356,-0.236 0.572,-0.644 l 0.436,0.1 q -0.24,0.532 -0.724,0.872 -0.484,0.336 -1.084,0.336 z m -1.56,-2.296 h 3.112 q -0.024,-0.412 -0.24,-0.756 -0.212,-0.348 -0.556,-0.556 -0.344,-0.208 -0.756,-0.208 -0.412,0 -0.752,0.204 -0.34,0.204 -0.556,0.552 -0.212,0.344 -0.252,0.764 z" style="font-weight:300;font-family:Urbanist;-inkscape-font-specification:'Urbanist Light';fill:#fff;fill-opacity:1" id="path27889"/></g></svg>