<svg xmlns="http://www.w3.org/2000/svg" xmlns:svg="http://www.w3.org/2000/svg" id="svg30" width="455.89" height="166.131" version="1.1" xml:space="preserve"><metadata id="metadata36"/><defs id="defs34"><rect id="rect5261" width="612.835" height="237.717" x="-214.942" y="189.32"/><rect id="rect23305" width="259.304" height="58.616" x="183.391" y="91.559"/><rect id="rect21724" width="351.869" height="101.66" x="155.425" y="0"/><mask id="mask12539" maskUnits="userSpaceOnUse"><path style="fill:#fff;fill-opacity:1;stroke:none;stroke-width:.0672533;stroke-opacity:1" id="path12541" d="M 61.472032,106.18291 C 53.58256,102.90807 47.3902,97.004959 43.823805,89.359025 41.133943,83.592288 40.145108,77.229746 40.956672,70.910888 c 0.84886,-6.609211 3.66517,-12.826596 8.103401,-17.889354 0.829397,-0.946109 2.562065,-2.630138 3.59105,-3.490238 5.392221,-4.50725 11.970978,-7.181399 19.054719,-7.745428 1.308973,-0.104219 4.878235,-0.04646 6.101733,0.0987 6.702446,0.795368 12.816083,3.404383 17.888959,7.634147 0.963524,0.803384 2.775424,2.568269 3.596128,3.502807 6.916238,7.875564 9.777468,18.500601 7.733288,28.717122 -1.29292,6.461807 -4.48746,12.450654 -9.103746,17.06695 -2.137371,2.137386 -4.483685,3.944616 -7.001115,5.392586 -1.846911,1.06231 -4.869297,2.42543 -5.372264,2.42295 l -0.242518,-10e-4 -4.001565,-10.430157 c -2.200861,-5.736584 -4.009011,-10.449651 -4.018113,-10.47348 -0.0091,-0.0238 0.248144,-0.146198 0.571653,-0.271912 1.977541,-0.768479 3.437264,-1.797009 4.686575,-3.302221 1.236694,-1.490016 1.971575,-3.066061 2.3676,-5.077626 0.163367,-0.82979 0.164376,-2.838903 0.0018,-3.711449 -0.566946,-3.044052 -2.262816,-5.60616 -4.819603,-7.281409 -1.145062,-0.750263 -2.623297,-1.343891 -3.968471,-1.593662 -0.892935,-0.165793 -3.007755,-0.165793 -3.900691,0 -3.880776,0.720569 -7.138169,3.546428 -8.372531,7.263348 -1.47384,4.438015 0.01732,9.280324 3.730458,12.114622 0.877451,0.669755 2.056043,1.294147 3.247555,1.720479 0.139252,0.04987 0.245175,0.111427 0.235389,0.136883 -0.01026,0.02545 -1.818501,4.739843 -4.01936,10.476427 l -4.001567,10.430157 -0.269018,-0.004 c -0.171325,-0.002 -0.645018,-0.15969 -1.30445,-0.43341 z"/></mask><mask id="mask12543" maskUnits="userSpaceOnUse"><path style="fill:#fff;fill-opacity:1;stroke:none;stroke-width:.0672533;stroke-opacity:1" id="path12545" d="M 61.472032,106.18291 C 53.58256,102.90807 47.3902,97.004959 43.823805,89.359025 41.133943,83.592288 40.145108,77.229746 40.956672,70.910888 c 0.84886,-6.609211 3.66517,-12.826596 8.103401,-17.889354 0.829397,-0.946109 2.562065,-2.630138 3.59105,-3.490238 5.392221,-4.50725 11.970978,-7.181399 19.054719,-7.745428 1.308973,-0.104219 4.878235,-0.04646 6.101733,0.0987 6.702446,0.795368 12.816083,3.404383 17.888959,7.634147 0.963524,0.803384 2.775424,2.568269 3.596128,3.502807 6.916238,7.875564 9.777468,18.500601 7.733288,28.717122 -1.29292,6.461807 -4.48746,12.450654 -9.103746,17.06695 -2.137371,2.137386 -4.483685,3.944616 -7.001115,5.392586 -1.846911,1.06231 -4.869297,2.42543 -5.372264,2.42295 l -0.242518,-10e-4 -4.001565,-10.430157 c -2.200861,-5.736584 -4.009011,-10.449651 -4.018113,-10.47348 -0.0091,-0.0238 0.248144,-0.146198 0.571653,-0.271912 1.977541,-0.768479 3.437264,-1.797009 4.686575,-3.302221 1.236694,-1.490016 1.971575,-3.066061 2.3676,-5.077626 0.163367,-0.82979 0.164376,-2.838903 0.0018,-3.711449 -0.566946,-3.044052 -2.262816,-5.60616 -4.819603,-7.281409 -1.145062,-0.750263 -2.623297,-1.343891 -3.968471,-1.593662 -0.892935,-0.165793 -3.007755,-0.165793 -3.900691,0 -3.880776,0.720569 -7.138169,3.546428 -8.372531,7.263348 -1.47384,4.438015 0.01732,9.280324 3.730458,12.114622 0.877451,0.669755 2.056043,1.294147 3.247555,1.720479 0.139252,0.04987 0.245175,0.111427 0.235389,0.136883 -0.01026,0.02545 -1.818501,4.739843 -4.01936,10.476427 l -4.001567,10.430157 -0.269018,-0.004 c -0.171325,-0.002 -0.645018,-0.15969 -1.30445,-0.43341 z"/></mask><mask id="mask12547" maskUnits="userSpaceOnUse"><path style="fill:#fff;fill-opacity:1;stroke:none;stroke-width:.0672533;stroke-opacity:1" id="path12549" d="M 61.472032,106.18291 C 53.58256,102.90807 47.3902,97.004959 43.823805,89.359025 41.133943,83.592288 40.145108,77.229746 40.956672,70.910888 c 0.84886,-6.609211 3.66517,-12.826596 8.103401,-17.889354 0.829397,-0.946109 2.562065,-2.630138 3.59105,-3.490238 5.392221,-4.50725 11.970978,-7.181399 19.054719,-7.745428 1.308973,-0.104219 4.878235,-0.04646 6.101733,0.0987 6.702446,0.795368 12.816083,3.404383 17.888959,7.634147 0.963524,0.803384 2.775424,2.568269 3.596128,3.502807 6.916238,7.875564 9.777468,18.500601 7.733288,28.717122 -1.29292,6.461807 -4.48746,12.450654 -9.103746,17.06695 -2.137371,2.137386 -4.483685,3.944616 -7.001115,5.392586 -1.846911,1.06231 -4.869297,2.42543 -5.372264,2.42295 l -0.242518,-10e-4 -4.001565,-10.430157 c -2.200861,-5.736584 -4.009011,-10.449651 -4.018113,-10.47348 -0.0091,-0.0238 0.248144,-0.146198 0.571653,-0.271912 1.977541,-0.768479 3.437264,-1.797009 4.686575,-3.302221 1.236694,-1.490016 1.971575,-3.066061 2.3676,-5.077626 0.163367,-0.82979 0.164376,-2.838903 0.0018,-3.711449 -0.566946,-3.044052 -2.262816,-5.60616 -4.819603,-7.281409 -1.145062,-0.750263 -2.623297,-1.343891 -3.968471,-1.593662 -0.892935,-0.165793 -3.007755,-0.165793 -3.900691,0 -3.880776,0.720569 -7.138169,3.546428 -8.372531,7.263348 -1.47384,4.438015 0.01732,9.280324 3.730458,12.114622 0.877451,0.669755 2.056043,1.294147 3.247555,1.720479 0.139252,0.04987 0.245175,0.111427 0.235389,0.136883 -0.01026,0.02545 -1.818501,4.739843 -4.01936,10.476427 l -4.001567,10.430157 -0.269018,-0.004 c -0.171325,-0.002 -0.645018,-0.15969 -1.30445,-0.43341 z"/></mask></defs><title id="title2">Flag of the Marshall Islands</title><g id="g4013" transform="translate(-48.313708,-42.012048)"><g id="g4072" transform="matrix(1.557699,0,0,1.557699,204.57878,-247.04656)" style="fill:#9063cd;fill-opacity:1"><g id="text21722-1" aria-label="COS" transform="matrix(10.463716,0,0,10.463716,-1597.0148,190.51982)" style="font-size:8px;line-height:1.25;letter-spacing:-.353536px;white-space:pre;shape-inside:url(#rect21724);fill:#9063cd;fill-opacity:1"><path d="m 158.49778,7.4373333 q -0.568,0 -1.068,-0.224 -0.5,-0.228 -0.88,-0.628 -0.376,-0.4 -0.592,-0.924 -0.212,-0.528 -0.212,-1.128 0,-0.604 0.212,-1.128 0.216,-0.528 0.592,-0.924 0.38,-0.4 0.88,-0.624 0.5,-0.228 1.068,-0.228 0.68,0 1.252,0.316 0.572,0.312 0.948,0.836 l -1.072,0.576 q -0.208,-0.24 -0.5,-0.384 -0.292,-0.144 -0.628,-0.144 -0.32,0 -0.604,0.132 -0.28,0.132 -0.496,0.368 -0.212,0.232 -0.332,0.54 -0.12,0.308 -0.12,0.664 0,0.352 0.12,0.66 0.12,0.308 0.332,0.544 0.216,0.232 0.496,0.368 0.284,0.132 0.604,0.132 0.336,0 0.628,-0.144 0.292,-0.148 0.5,-0.392 l 1.072,0.584 q -0.376,0.52 -0.948,0.836 -0.572,0.316 -1.252,0.316 z" style="font-weight:900;font-family:Urbanist;-inkscape-font-specification:'Urbanist Heavy';fill:#9063cd;fill-opacity:1" id="path27854-5"/><path d="m 163.62425,7.4373333 q -0.568,0 -1.068,-0.224 -0.5,-0.228 -0.88,-0.628 -0.38,-0.4 -0.596,-0.924 -0.216,-0.528 -0.216,-1.128 0,-0.6 0.216,-1.124 0.216,-0.528 0.596,-0.928 0.38,-0.4 0.88,-0.624 0.5,-0.228 1.068,-0.228 0.572,0 1.072,0.228 0.5,0.224 0.88,0.624 0.38,0.4 0.592,0.928 0.216,0.524 0.216,1.124 0,0.6 -0.216,1.128 -0.212,0.524 -0.592,0.924 -0.38,0.4 -0.88,0.628 -0.5,0.224 -1.072,0.224 z m 0,-1.2 q 0.32,0 0.6,-0.132 0.284,-0.136 0.5,-0.368 0.216,-0.236 0.336,-0.544 0.124,-0.308 0.124,-0.66 0,-0.352 -0.124,-0.66 -0.12,-0.308 -0.336,-0.54 -0.216,-0.236 -0.5,-0.368 -0.28,-0.136 -0.6,-0.136 -0.32,0 -0.604,0.136 -0.28,0.132 -0.496,0.368 -0.216,0.232 -0.34,0.54 -0.12,0.308 -0.12,0.66 0,0.352 0.12,0.66 0.124,0.308 0.34,0.544 0.216,0.232 0.496,0.368 0.284,0.132 0.604,0.132 z" style="font-weight:900;font-family:Urbanist;-inkscape-font-specification:'Urbanist Heavy';fill:#9063cd;fill-opacity:1" id="path27856-6"/><path d="m 168.87871,7.4373333 q -0.472,0 -0.904,-0.148 -0.432,-0.152 -0.756,-0.432 -0.324,-0.284 -0.468,-0.676 l 1.128,-0.416 q 0.04,0.116 0.176,0.224 0.14,0.108 0.352,0.18 0.212,0.068 0.472,0.068 0.24,0 0.452,-0.068 0.212,-0.072 0.344,-0.196 0.132,-0.124 0.132,-0.288 0,-0.168 -0.14,-0.276 -0.136,-0.112 -0.352,-0.176 -0.212,-0.068 -0.436,-0.1 -0.608,-0.088 -1.092,-0.288 -0.48,-0.204 -0.76,-0.56 -0.276,-0.356 -0.276,-0.904 0,-0.524 0.296,-0.916 0.296,-0.396 0.78,-0.616 0.488,-0.22 1.052,-0.22 0.472,0 0.904,0.152 0.436,0.148 0.76,0.432 0.324,0.284 0.464,0.68 l -1.128,0.408 q -0.04,-0.116 -0.18,-0.22 -0.136,-0.108 -0.348,-0.176 -0.212,-0.068 -0.472,-0.068 -0.232,-0.004 -0.444,0.068 -0.212,0.072 -0.348,0.196 -0.136,0.124 -0.136,0.28 0,0.216 0.128,0.324 0.128,0.104 0.336,0.148 0.212,0.044 0.464,0.08 0.576,0.084 1.06,0.3 0.484,0.216 0.776,0.576 0.292,0.36 0.292,0.876 0,0.524 -0.296,0.92 -0.292,0.392 -0.776,0.612 -0.484,0.22 -1.056,0.22 z" style="font-weight:900;font-family:Urbanist;-inkscape-font-specification:'Urbanist Heavy';fill:#9063cd;fill-opacity:1" id="path27858-9"/></g><g id="text3273" aria-label="clube open source" transform="matrix(2.4375545,0,0,2.4375545,-62.787063,-429.88094)" style="font-size:8px;line-height:1.25;white-space:pre;shape-inside:url(#rect3275);fill:#9063cd;fill-opacity:1"><path d="m 43.648641,293.10358 0.744,0.404 q -0.272,0.38 -0.692,0.608 -0.416,0.228 -0.904,0.228 -0.552,0 -1.008,-0.284 -0.452,-0.284 -0.724,-0.76 -0.268,-0.48 -0.268,-1.06 0,-0.44 0.156,-0.82 0.156,-0.384 0.428,-0.672 0.276,-0.292 0.64,-0.456 0.364,-0.164 0.776,-0.164 0.488,0 0.904,0.228 0.42,0.228 0.692,0.612 l -0.744,0.404 q -0.168,-0.2 -0.392,-0.304 -0.224,-0.108 -0.46,-0.108 -0.328,0 -0.596,0.18 -0.264,0.176 -0.42,0.468 -0.152,0.288 -0.152,0.632 0,0.34 0.156,0.632 0.156,0.288 0.42,0.464 0.268,0.176 0.592,0.176 0.248,0 0.472,-0.112 0.224,-0.112 0.38,-0.296 z" style="font-weight:600;font-family:Urbanist;-inkscape-font-specification:'Urbanist Semi-Bold';fill:#9063cd;fill-opacity:1" id="path1955"/><path d="m 45.014744,294.23958 v -6 h 0.832 v 6 z" style="font-weight:600;font-family:Urbanist;-inkscape-font-specification:'Urbanist Semi-Bold';fill:#9063cd;fill-opacity:1" id="path1957"/><path d="m 46.646752,292.73958 v -2.5 h 0.832 v 2.296 q 0,0.268 0.132,0.488 0.132,0.22 0.352,0.352 0.22,0.128 0.484,0.128 0.268,0 0.484,-0.128 0.22,-0.132 0.348,-0.352 0.132,-0.22 0.132,-0.488 v -2.296 h 0.832 l 0.004,4 h -0.832 l -0.004,-0.432 q -0.204,0.248 -0.508,0.392 -0.304,0.144 -0.652,0.144 -0.444,0 -0.808,-0.216 -0.364,-0.216 -0.58,-0.58 -0.216,-0.364 -0.216,-0.808 z" style="font-weight:600;font-family:Urbanist;-inkscape-font-specification:'Urbanist Semi-Bold';fill:#9063cd;fill-opacity:1" id="path1959"/><path d="m 53.156664,290.12758 q 0.584,0 1.06,0.284 0.48,0.284 0.764,0.764 0.284,0.476 0.284,1.06 0,0.436 -0.164,0.82 -0.164,0.38 -0.456,0.672 -0.288,0.288 -0.672,0.452 -0.38,0.164 -0.816,0.164 -0.42,0 -0.736,-0.192 -0.312,-0.196 -0.512,-0.5 v 0.588 h -0.832 v -6 h 0.832 v 2.58 q 0.2,-0.308 0.512,-0.5 0.316,-0.192 0.736,-0.192 z m -0.008,3.408 q 0.348,0 0.636,-0.176 0.288,-0.176 0.456,-0.472 0.172,-0.296 0.172,-0.652 0,-0.364 -0.172,-0.66 -0.172,-0.296 -0.46,-0.468 -0.288,-0.176 -0.632,-0.176 -0.348,0 -0.612,0.176 -0.264,0.176 -0.412,0.472 -0.148,0.296 -0.148,0.656 0,0.36 0.148,0.656 0.148,0.296 0.412,0.472 0.264,0.172 0.612,0.172 z" style="font-weight:600;font-family:Urbanist;-inkscape-font-specification:'Urbanist Semi-Bold';fill:#9063cd;fill-opacity:1" id="path1961"/><path d="m 57.664667,294.34358 q -0.552,0 -1.008,-0.284 -0.452,-0.284 -0.724,-0.76 -0.268,-0.48 -0.268,-1.06 0,-0.44 0.156,-0.82 0.156,-0.384 0.428,-0.672 0.276,-0.292 0.64,-0.456 0.364,-0.164 0.776,-0.164 0.46,0 0.844,0.192 0.384,0.188 0.656,0.524 0.272,0.332 0.4,0.768 0.128,0.432 0.076,0.92 h -3.084 q 0.052,0.276 0.2,0.5 0.152,0.22 0.384,0.348 0.236,0.128 0.524,0.132 0.304,0 0.552,-0.152 0.252,-0.152 0.412,-0.42 l 0.844,0.196 q -0.24,0.532 -0.724,0.872 -0.484,0.336 -1.084,0.336 z m -1.136,-2.448 h 2.272 q -0.04,-0.288 -0.204,-0.52 -0.16,-0.236 -0.404,-0.372 -0.24,-0.14 -0.528,-0.14 -0.284,0 -0.528,0.136 -0.24,0.136 -0.4,0.372 -0.156,0.232 -0.208,0.524 z" style="font-weight:600;font-family:Urbanist;-inkscape-font-specification:'Urbanist Semi-Bold';fill:#9063cd;fill-opacity:1" id="path1963"/><path d="m 64.056666,294.34358 q -0.552,0 -1.008,-0.284 -0.452,-0.284 -0.724,-0.76 -0.268,-0.48 -0.268,-1.06 0,-0.44 0.156,-0.82 0.156,-0.384 0.428,-0.672 0.276,-0.292 0.64,-0.456 0.364,-0.164 0.776,-0.164 0.552,0 1.004,0.284 0.456,0.284 0.724,0.764 0.272,0.48 0.272,1.064 0,0.436 -0.156,0.816 -0.156,0.38 -0.432,0.672 -0.272,0.288 -0.636,0.452 -0.36,0.164 -0.776,0.164 z m 0,-0.832 q 0.332,0 0.596,-0.176 0.264,-0.176 0.416,-0.464 0.156,-0.292 0.156,-0.632 0,-0.348 -0.16,-0.64 -0.156,-0.292 -0.42,-0.464 -0.264,-0.176 -0.588,-0.176 -0.328,0 -0.596,0.176 -0.264,0.176 -0.42,0.468 -0.152,0.292 -0.152,0.636 0,0.356 0.16,0.644 0.16,0.288 0.424,0.46 0.268,0.168 0.584,0.168 z" style="font-weight:600;font-family:Urbanist;-inkscape-font-specification:'Urbanist Semi-Bold';fill:#9063cd;fill-opacity:1" id="path1965"/><path d="m 67.534672,296.23958 h -0.832 v -6 h 0.832 v 0.588 q 0.2,-0.308 0.512,-0.5 0.312,-0.192 0.736,-0.192 0.436,0 0.816,0.164 0.384,0.164 0.672,0.456 0.288,0.288 0.452,0.668 0.164,0.38 0.164,0.816 0,0.436 -0.164,0.82 -0.164,0.384 -0.452,0.676 -0.288,0.288 -0.672,0.452 -0.38,0.164 -0.816,0.164 -0.424,0 -0.736,-0.192 -0.312,-0.196 -0.512,-0.5 z m 1.24,-5.3 q -0.348,0 -0.612,0.176 -0.264,0.176 -0.412,0.472 -0.148,0.292 -0.148,0.652 0,0.36 0.148,0.656 0.148,0.296 0.412,0.472 0.264,0.176 0.612,0.176 0.344,0 0.632,-0.172 0.288,-0.176 0.46,-0.472 0.172,-0.296 0.172,-0.66 0,-0.356 -0.172,-0.652 -0.168,-0.296 -0.456,-0.472 -0.288,-0.176 -0.636,-0.176 z" style="font-weight:600;font-family:Urbanist;-inkscape-font-specification:'Urbanist Semi-Bold';fill:#9063cd;fill-opacity:1" id="path1967"/><path d="m 73.286677,294.34358 q -0.552,0 -1.008,-0.284 -0.452,-0.284 -0.724,-0.76 -0.268,-0.48 -0.268,-1.06 0,-0.44 0.156,-0.82 0.156,-0.384 0.428,-0.672 0.276,-0.292 0.64,-0.456 0.364,-0.164 0.776,-0.164 0.46,0 0.844,0.192 0.384,0.188 0.656,0.524 0.272,0.332 0.4,0.768 0.128,0.432 0.076,0.92 h -3.084 q 0.052,0.276 0.2,0.5 0.152,0.22 0.384,0.348 0.236,0.128 0.524,0.132 0.304,0 0.552,-0.152 0.252,-0.152 0.412,-0.42 l 0.844,0.196 q -0.24,0.532 -0.724,0.872 -0.484,0.336 -1.084,0.336 z m -1.136,-2.448 h 2.272 q -0.04,-0.288 -0.204,-0.52 -0.16,-0.236 -0.404,-0.372 -0.24,-0.14 -0.528,-0.14 -0.284,0 -0.528,0.136 -0.24,0.136 -0.4,0.372 -0.156,0.232 -0.208,0.524 z" style="font-weight:600;font-family:Urbanist;-inkscape-font-specification:'Urbanist Semi-Bold';fill:#9063cd;fill-opacity:1" id="path1969"/><path d="m 79.524687,291.73158 v 2.508 h -0.832 v -2.304 q 0,-0.268 -0.132,-0.488 -0.128,-0.22 -0.348,-0.348 -0.216,-0.132 -0.488,-0.132 -0.264,0 -0.484,0.132 -0.22,0.128 -0.352,0.348 -0.132,0.22 -0.132,0.488 v 2.304 h -0.832 v -4 h 0.832 v 0.424 q 0.208,-0.248 0.512,-0.392 0.304,-0.144 0.656,-0.144 0.444,0 0.808,0.216 0.364,0.216 0.576,0.58 0.216,0.364 0.216,0.808 z" style="font-weight:600;font-family:Urbanist;-inkscape-font-specification:'Urbanist Semi-Bold';fill:#9063cd;fill-opacity:1" id="path1971"/><path d="m 83.444679,294.31558 q -0.316,-0.02 -0.616,-0.128 -0.3,-0.108 -0.528,-0.292 -0.224,-0.188 -0.336,-0.44 l 0.708,-0.304 q 0.052,0.108 0.18,0.212 0.132,0.104 0.308,0.172 0.176,0.064 0.368,0.064 0.188,0 0.348,-0.052 0.164,-0.056 0.268,-0.168 0.104,-0.112 0.104,-0.268 0,-0.176 -0.12,-0.272 -0.116,-0.1 -0.292,-0.152 -0.176,-0.052 -0.352,-0.1 -0.392,-0.088 -0.72,-0.24 -0.324,-0.156 -0.516,-0.396 -0.192,-0.244 -0.192,-0.596 0,-0.384 0.208,-0.664 0.208,-0.284 0.544,-0.436 0.34,-0.152 0.724,-0.152 0.48,0 0.88,0.204 0.4,0.204 0.612,0.56 l -0.66,0.392 q -0.06,-0.12 -0.18,-0.216 -0.12,-0.096 -0.272,-0.152 -0.152,-0.06 -0.316,-0.068 -0.204,-0.008 -0.38,0.048 -0.172,0.052 -0.276,0.168 -0.104,0.116 -0.104,0.296 0,0.176 0.124,0.264 0.124,0.084 0.312,0.136 0.192,0.052 0.392,0.116 0.356,0.112 0.668,0.276 0.312,0.16 0.504,0.396 0.192,0.236 0.184,0.576 0,0.376 -0.228,0.66 -0.224,0.284 -0.584,0.432 -0.36,0.148 -0.764,0.124 z" style="font-weight:600;font-family:Urbanist;-inkscape-font-specification:'Urbanist Semi-Bold';fill:#9063cd;fill-opacity:1" id="path1973"/><path d="m 87.414591,294.34358 q -0.552,0 -1.008,-0.284 -0.452,-0.284 -0.724,-0.76 -0.268,-0.48 -0.268,-1.06 0,-0.44 0.156,-0.82 0.156,-0.384 0.428,-0.672 0.276,-0.292 0.64,-0.456 0.364,-0.164 0.776,-0.164 0.552,0 1.004,0.284 0.456,0.284 0.724,0.764 0.272,0.48 0.272,1.064 0,0.436 -0.156,0.816 -0.156,0.38 -0.432,0.672 -0.272,0.288 -0.636,0.452 -0.36,0.164 -0.776,0.164 z m 0,-0.832 q 0.332,0 0.596,-0.176 0.264,-0.176 0.416,-0.464 0.156,-0.292 0.156,-0.632 0,-0.348 -0.16,-0.64 -0.156,-0.292 -0.42,-0.464 -0.264,-0.176 -0.588,-0.176 -0.328,0 -0.596,0.176 -0.264,0.176 -0.42,0.468 -0.152,0.292 -0.152,0.636 0,0.356 0.16,0.644 0.16,0.288 0.424,0.46 0.268,0.168 0.584,0.168 z" style="font-weight:600;font-family:Urbanist;-inkscape-font-specification:'Urbanist Semi-Bold';fill:#9063cd;fill-opacity:1" id="path1975"/><path d="m 89.826592,292.73958 v -2.5 h 0.832 v 2.296 q 0,0.268 0.132,0.488 0.132,0.22 0.352,0.352 0.22,0.128 0.484,0.128 0.268,0 0.484,-0.128 0.22,-0.132 0.348,-0.352 0.132,-0.22 0.132,-0.488 v -2.296 h 0.832 l 0.004,4 h -0.832 l -0.004,-0.432 q -0.204,0.248 -0.508,0.392 -0.304,0.144 -0.652,0.144 -0.444,0 -0.808,-0.216 -0.364,-0.216 -0.58,-0.58 -0.216,-0.364 -0.216,-0.808 z" style="font-weight:600;font-family:Urbanist;-inkscape-font-specification:'Urbanist Semi-Bold';fill:#9063cd;fill-opacity:1" id="path1977"/><path d="m 94.226597,294.23958 v -4 h 0.832 v 0.424 q 0.208,-0.248 0.512,-0.392 0.304,-0.144 0.656,-0.144 0.224,0 0.444,0.06 l -0.332,0.84 q -0.156,-0.06 -0.312,-0.06 -0.264,0 -0.484,0.132 -0.22,0.128 -0.352,0.348 -0.132,0.22 -0.132,0.488 v 2.304 z" style="font-weight:600;font-family:Urbanist;-inkscape-font-specification:'Urbanist Semi-Bold';fill:#9063cd;fill-opacity:1" id="path1979"/><path d="m 99.552495,293.10358 0.743995,0.404 q -0.272,0.38 -0.691995,0.608 -0.416,0.228 -0.904,0.228 -0.552,0 -1.008,-0.284 -0.452,-0.284 -0.724,-0.76 -0.268,-0.48 -0.268,-1.06 0,-0.44 0.156,-0.82 0.156,-0.384 0.428,-0.672 0.276,-0.292 0.64,-0.456 0.364,-0.164 0.776,-0.164 0.488,0 0.904,0.228 0.419995,0.228 0.691995,0.612 l -0.743995,0.404 q -0.168,-0.2 -0.392,-0.304 -0.224,-0.108 -0.46,-0.108 -0.328,0 -0.596,0.18 -0.264,0.176 -0.42,0.468 -0.152,0.288 -0.152,0.632 0,0.34 0.156,0.632 0.156,0.288 0.42,0.464 0.268,0.176 0.592,0.176 0.248,0 0.472,-0.112 0.224,-0.112 0.38,-0.296 z" style="font-weight:600;font-family:Urbanist;-inkscape-font-specification:'Urbanist Semi-Bold';fill:#9063cd;fill-opacity:1" id="path1981"/><path d="m 102.6786,294.34358 q -0.552,0 -1.008,-0.284 -0.452,-0.284 -0.724,-0.76 -0.268,-0.48 -0.268,-1.06 0,-0.44 0.156,-0.82 0.156,-0.384 0.428,-0.672 0.276,-0.292 0.64,-0.456 0.364,-0.164 0.776,-0.164 0.46,0 0.844,0.192 0.384,0.188 0.656,0.524 0.272,0.332 0.4,0.768 0.128,0.432 0.076,0.92 h -3.084 q 0.052,0.276 0.2,0.5 0.152,0.22 0.384,0.348 0.236,0.128 0.524,0.132 0.304,0 0.552,-0.152 0.252,-0.152 0.412,-0.42 l 0.844,0.196 q -0.24,0.532 -0.724,0.872 -0.484,0.336 -1.084,0.336 z m -1.136,-2.448 h 2.272 q -0.04,-0.288 -0.204,-0.52 -0.16,-0.236 -0.404,-0.372 -0.24,-0.14 -0.528,-0.14 -0.284,0 -0.528,0.136 -0.24,0.136 -0.4,0.372 -0.156,0.232 -0.208,0.524 z" style="font-weight:600;font-family:Urbanist;-inkscape-font-specification:'Urbanist Semi-Bold';fill:#9063cd;fill-opacity:1" id="path1983"/></g></g><g id="g3981" transform="matrix(1.1447131,0,0,1.1447131,0.98316898,-29.720316)"><path id="path897" d="M 77.794195,76.845793 V 99.18105 H 55.458937 v 8.82129 c 10.385516,0 20.771032,0 31.156548,0 0,-10.385516 0,-20.771032 0,-31.156547 z" style="fill:#9063cd;fill-opacity:1;stroke:#9063cd;stroke-width:5;stroke-linecap:butt;stroke-linejoin:miter;stroke-dasharray:none;stroke-opacity:1"/><path id="path897-6" d="M 134.84511,66.199591 119.0517,81.993003 103.25829,66.199591 97.020692,72.437187 c 7.343668,7.343666 14.687338,14.687334 22.031008,22.031003 7.34367,-7.343669 14.68733,-14.687337 22.03099,-22.031003 z" style="fill:#9063cd;fill-opacity:1;stroke:#9063cd;stroke-width:5;stroke-linecap:butt;stroke-linejoin:miter;stroke-dasharray:none;stroke-opacity:1"/><path id="path897-7" d="m 160.09555,76.775914 v 22.335258 h 22.33524 v 8.821288 c -10.38552,0 -20.77102,0 -31.15654,0 0,-10.385514 0,-20.77103 0,-31.156546 z" style="fill:#9063cd;fill-opacity:1;stroke:#9063cd;stroke-width:5;stroke-linecap:butt;stroke-linejoin:miter;stroke-dasharray:none;stroke-opacity:1"/><path id="path897-3" d="M 77.794195,203.9073 V 181.57203 H 55.458937 v -8.82128 c 10.385516,0 20.771032,0 31.156548,0 0,10.38552 0,20.77102 0,31.15655 z" style="fill:#9063cd;fill-opacity:1;stroke:#9063cd;stroke-width:5;stroke-linecap:butt;stroke-linejoin:miter;stroke-dasharray:none;stroke-opacity:1"/><path id="path897-7-6" d="m 160.09555,203.97717 v -22.33525 h 22.33524 v -8.82129 c -10.38552,0 -20.77102,0 -31.15654,0 0,10.38552 0,20.77104 0,31.15654 z" style="fill:#9063cd;fill-opacity:1;stroke:#9063cd;stroke-width:5;stroke-linecap:butt;stroke-linejoin:miter;stroke-dasharray:none;stroke-opacity:1"/><path id="path897-6-1" d="m 44.882612,124.43147 15.793412,15.79341 -15.793412,15.79341 6.237595,6.23759 c 7.343666,-7.34366 14.687335,-14.68733 22.031004,-22.031 -7.343669,-7.34367 -14.687338,-14.68734 -22.031004,-22.03099 z" style="fill:#9063cd;fill-opacity:1;stroke:#9063cd;stroke-width:5;stroke-linecap:butt;stroke-linejoin:miter;stroke-dasharray:none;stroke-opacity:1"/><path id="path897-6-5-9" d="m 193.23651,124.43146 -15.7934,15.79341 15.7934,15.79342 -6.2376,6.23759 c -7.34367,-7.34367 -14.68733,-14.68734 -22.031,-22.03101 7.34367,-7.34366 14.68733,-14.68733 22.031,-22.03099 z" style="fill:#9063cd;fill-opacity:1;stroke:#9063cd;stroke-width:5;stroke-linecap:butt;stroke-linejoin:miter;stroke-dasharray:none;stroke-opacity:1"/><path id="path15729" style="color:#000;fill:#9063cd;fill-opacity:1;stroke-linecap:square;stroke-miterlimit:2.5;stroke-dashoffset:8.50395" d="m 119.02539,109.85742 c -7.63429,0 -15.27011,2.89706 -21.062499,8.68946 -11.584775,11.58476 -11.584775,30.53631 0,42.12109 l 3.515629,3.51562 -7.445317,42.22461 h 10.830077 l 8.71875,-49.45703 c -1.47045,-0.53108 -2.41884,-0.90863 -3.38281,-1.38086 -0.87395,-0.43996 -3.00066,-1.49869 -4.32031,-2.81836 -7.306745,-7.30673 -7.306746,-18.98232 0,-26.28906 7.30674,-7.30674 18.98428,-7.30674 26.29101,0 7.30674,7.30674 7.30674,18.98233 0,26.28906 -1.2962,1.3327 -2.7718,2.01091 -4.48047,2.88867 -0.96396,0.47223 -1.91236,0.84978 -3.38281,1.38086 l 8.7207,49.45508 h 10.83008 l -7.43359,-42.14648 3.66211,-3.66211 c 11.58478,-11.58478 11.58478,-30.53633 0,-42.12109 -5.79239,-5.7924 -13.42626,-8.68946 -21.06055,-8.68946 z"/></g></g></svg>